<svg width="420" height="420" viewBox="0 0 49 11" fill="none" xmlns="http://www.w3.org/2000/svg">
      <path d="M3.028 9.768C2.844 9.864 2.648 9.912 2.44 9.912C2.184 9.88 1.936 9.816 1.696 9.72C1.464 9.624 1.292 9.508 1.18 9.372C1.116 8.98 1.064 8.62 1.024 8.292C0.984 7.964 0.952 7.656 0.928 7.368C0.904 7.072 0.888 6.792 0.88 6.528C0.872 6.256 0.868 5.984 0.868 5.712C0.868 5.352 0.872 4.972 0.88 4.572C0.888 4.172 0.896 3.748 0.904 3.3C0.92 2.844 0.932 2.36 0.94 1.848C0.948 1.328 0.952 0.764 0.952 0.155999C1.056 0.155999 1.212 0.187999 1.42 0.252C1.628 0.307999 1.832 0.375999 2.032 0.456C2.24 0.536 2.424 0.62 2.584 0.707999C2.744 0.787999 2.832 0.855999 2.848 0.912C2.768 1.136 2.696 1.428 2.632 1.788C2.576 2.148 2.528 2.548 2.488 2.988C2.456 3.428 2.432 3.892 2.416 4.38C2.4 4.868 2.392 5.352 2.392 5.832C2.392 6.192 2.396 6.516 2.404 6.804C2.412 7.084 2.42 7.34 2.428 7.572C2.444 7.796 2.464 8.008 2.488 8.208C2.512 8.4 2.54 8.592 2.572 8.784C2.796 8.104 3.04 7.424 3.304 6.744C3.576 6.064 3.852 5.412 4.132 4.788C4.42 4.156 4.704 3.568 4.984 3.024C5.264 2.48 5.528 2.008 5.776 1.608C6.032 1.2 6.26 0.879999 6.46 0.648C6.66 0.408 6.824 0.28 6.952 0.263999C7.04 0.28 7.132 0.316 7.228 0.372C7.332 0.419999 7.428 0.479999 7.516 0.551999C7.604 0.623999 7.684 0.704 7.756 0.792C7.828 0.88 7.884 0.967999 7.924 1.056C7.628 1.16 7.308 1.404 6.964 1.788C6.628 2.172 6.288 2.636 5.944 3.18C5.6 3.716 5.264 4.304 4.936 4.944C4.616 5.576 4.324 6.196 4.06 6.804C3.804 7.412 3.584 7.98 3.4 8.508C3.216 9.036 3.092 9.456 3.028 9.768ZM10.654 4.152C10.734 4.152 10.826 4.168 10.93 4.2C11.042 4.224 11.142 4.26 11.23 4.308C11.318 4.348 11.39 4.392 11.446 4.44C11.51 4.488 11.542 4.532 11.542 4.572C11.382 4.908 11.234 5.248 11.098 5.592C10.962 5.928 10.846 6.252 10.75 6.564C10.654 6.876 10.578 7.168 10.522 7.44C10.474 7.712 10.45 7.948 10.45 8.148C10.45 8.372 10.474 8.56 10.522 8.712C10.57 8.856 10.65 8.96 10.762 9.024C10.666 9.088 10.542 9.14 10.39 9.18C10.238 9.22 10.102 9.24 9.982 9.24C9.55 9.24 9.334 8.944 9.334 8.352C9.334 7.896 9.486 7.272 9.79 6.48C9.63 6.848 9.446 7.196 9.238 7.524C9.03 7.844 8.818 8.128 8.602 8.376C8.386 8.624 8.166 8.828 7.942 8.988C7.726 9.14 7.526 9.232 7.342 9.264C7.046 9.248 6.806 9.108 6.622 8.844C6.438 8.572 6.346 8.228 6.346 7.812C6.346 7.364 6.442 6.892 6.634 6.396C6.826 5.9 7.07 5.44 7.366 5.016C7.67 4.592 7.998 4.24 8.35 3.96C8.702 3.672 9.042 3.52 9.37 3.504C9.45 3.528 9.538 3.576 9.634 3.648C9.738 3.72 9.834 3.804 9.922 3.9C10.018 3.996 10.098 4.096 10.162 4.2C10.226 4.296 10.262 4.38 10.27 4.452C9.95 4.5 9.618 4.656 9.274 4.92C8.938 5.184 8.63 5.504 8.35 5.88C8.078 6.248 7.854 6.644 7.678 7.068C7.502 7.492 7.414 7.888 7.414 8.256C7.414 8.408 7.47 8.504 7.582 8.544C7.814 8.496 8.082 8.3 8.386 7.956C8.69 7.604 9.058 7.064 9.49 6.336C9.57 6.192 9.658 6.032 9.754 5.856C9.858 5.68 9.962 5.496 10.066 5.304C10.17 5.112 10.27 4.92 10.366 4.728C10.47 4.528 10.566 4.336 10.654 4.152ZM14.6947 3.18C14.9027 3.244 15.0987 3.388 15.2827 3.612C15.4667 3.828 15.6027 4.068 15.6907 4.332C15.6027 4.548 15.4667 4.808 15.2827 5.112C15.0987 5.416 14.9147 5.728 14.7307 6.048C14.5467 6.36 14.3787 6.66 14.2267 6.948C14.0827 7.228 13.9987 7.46 13.9747 7.644C14.1027 7.508 14.2427 7.352 14.3947 7.176C14.5547 6.992 14.7067 6.812 14.8507 6.636C15.0027 6.452 15.1427 6.288 15.2707 6.144C15.3987 5.992 15.4987 5.88 15.5707 5.808C15.7227 5.648 15.9027 5.464 16.1107 5.256C16.3187 5.04 16.5347 4.84 16.7587 4.656C16.9907 4.464 17.2227 4.304 17.4547 4.176C17.6867 4.04 17.8987 3.972 18.0907 3.972C18.2987 3.972 18.4707 4.044 18.6067 4.188C18.7507 4.324 18.8627 4.468 18.9427 4.62C18.9427 4.636 18.9107 4.66 18.8467 4.692C18.7907 4.716 18.7067 4.792 18.5947 4.92C18.4827 5.064 18.3547 5.264 18.2107 5.52C18.0747 5.768 17.9387 6.04 17.8027 6.336C17.6747 6.624 17.5667 6.92 17.4787 7.224C17.3907 7.528 17.3467 7.804 17.3467 8.052C17.3467 8.252 17.3707 8.38 17.4187 8.436C17.4747 8.492 17.5507 8.52 17.6467 8.52C17.7347 8.52 17.8267 8.5 17.9227 8.46C18.0187 8.42 18.0947 8.4 18.1507 8.4C18.1827 8.416 18.2067 8.452 18.2227 8.508C18.2467 8.556 18.2587 8.6 18.2587 8.64C18.1947 8.696 18.1187 8.752 18.0307 8.808C17.9427 8.864 17.8507 8.916 17.7547 8.964C17.6587 9.012 17.5627 9.052 17.4667 9.084C17.3787 9.116 17.2987 9.132 17.2267 9.132C16.9947 9.132 16.8027 9.096 16.6507 9.024C16.5067 8.96 16.3907 8.872 16.3027 8.76C16.2227 8.648 16.1667 8.516 16.1347 8.364C16.1027 8.204 16.0867 8.036 16.0867 7.86C16.0867 7.764 16.0947 7.656 16.1107 7.536C16.1267 7.416 16.1587 7.276 16.2067 7.116C16.2547 6.948 16.3227 6.752 16.4107 6.528C16.4987 6.296 16.6107 6.02 16.7467 5.7C16.7307 5.7 16.6227 5.756 16.4227 5.868C16.2227 5.98 16.0067 6.152 15.7747 6.384C15.3987 6.744 15.0587 7.1 14.7547 7.452C14.4587 7.804 14.1547 8.196 13.8427 8.628C13.6667 8.876 13.5107 9.084 13.3747 9.252C13.2467 9.428 13.1347 9.544 13.0387 9.6C12.8707 9.504 12.7467 9.368 12.6667 9.192C12.5867 9.024 12.5267 8.848 12.4867 8.664C12.4867 8.512 12.5067 8.32 12.5467 8.088C12.5947 7.856 12.6547 7.6 12.7267 7.32C12.8067 7.032 12.9027 6.732 13.0147 6.42C13.1267 6.108 13.2507 5.796 13.3867 5.484C13.6907 4.78 13.9667 4.228 14.2147 3.828C14.4707 3.428 14.6307 3.212 14.6947 3.18ZM20.9661 1.728C20.6461 1.728 20.3981 1.64 20.2221 1.464C20.0541 1.28 19.9701 1.06 19.9701 0.804C19.9701 0.74 19.9781 0.664 19.9941 0.576C20.0181 0.487999 20.0461 0.411999 20.0781 0.348C20.1821 0.396 20.3341 0.432 20.5341 0.456C20.7421 0.472 20.9821 0.48 21.2541 0.48C21.6621 0.48 22.1221 0.464 22.6341 0.431999C23.1541 0.391999 23.6501 0.352 24.1221 0.312C24.5941 0.272 25.0101 0.236 25.3701 0.204C25.7301 0.164 25.9621 0.144 26.0661 0.144C26.3621 0.144 26.5741 0.256 26.7021 0.48C26.8381 0.696 26.9381 0.988 27.0021 1.356C26.7941 1.34 26.5861 1.328 26.3781 1.32C26.1781 1.304 26.0061 1.296 25.8621 1.296C25.6061 1.296 25.3461 1.304 25.0821 1.32C24.8261 1.336 24.5661 1.36 24.3021 1.392C24.1901 1.624 24.0661 1.9 23.9301 2.22C23.7941 2.532 23.6581 2.86 23.5221 3.204C23.3941 3.548 23.2701 3.892 23.1501 4.236C23.0301 4.572 22.9261 4.876 22.8381 5.148C22.6621 5.676 22.5061 6.164 22.3701 6.612C22.2421 7.06 22.1261 7.48 22.0221 7.872C21.9261 8.256 21.8421 8.624 21.7701 8.976C21.6981 9.328 21.6341 9.672 21.5781 10.008C21.0421 9.928 20.5941 9.592 20.2341 9C20.2981 8.752 20.3741 8.484 20.4621 8.196C20.5581 7.9 20.6661 7.568 20.7861 7.2C20.9141 6.824 21.0621 6.4 21.2301 5.928C21.3981 5.456 21.5901 4.92 21.8061 4.32C21.8861 4.096 21.9701 3.864 22.0581 3.624C22.1461 3.376 22.2301 3.132 22.3101 2.892C22.3981 2.652 22.4741 2.42 22.5381 2.196C22.6101 1.972 22.6701 1.768 22.7181 1.584C22.3821 1.624 22.0621 1.66 21.7581 1.692C21.4621 1.716 21.1981 1.728 20.9661 1.728ZM28.9774 4.152C29.0574 4.152 29.1494 4.168 29.2534 4.2C29.3654 4.224 29.4654 4.26 29.5534 4.308C29.6414 4.348 29.7134 4.392 29.7694 4.44C29.8334 4.488 29.8654 4.532 29.8654 4.572C29.7054 4.908 29.5574 5.248 29.4214 5.592C29.2854 5.928 29.1694 6.252 29.0734 6.564C28.9774 6.876 28.9014 7.168 28.8454 7.44C28.7974 7.712 28.7734 7.948 28.7734 8.148C28.7734 8.372 28.7974 8.56 28.8454 8.712C28.8934 8.856 28.9734 8.96 29.0854 9.024C28.9894 9.088 28.8654 9.14 28.7134 9.18C28.5614 9.22 28.4254 9.24 28.3054 9.24C27.8734 9.24 27.6574 8.944 27.6574 8.352C27.6574 7.896 27.8094 7.272 28.1134 6.48C27.9534 6.848 27.7694 7.196 27.5614 7.524C27.3534 7.844 27.1414 8.128 26.9254 8.376C26.7094 8.624 26.4894 8.828 26.2654 8.988C26.0494 9.14 25.8494 9.232 25.6654 9.264C25.3694 9.248 25.1294 9.108 24.9454 8.844C24.7614 8.572 24.6694 8.228 24.6694 7.812C24.6694 7.364 24.7654 6.892 24.9574 6.396C25.1494 5.9 25.3934 5.44 25.6894 5.016C25.9934 4.592 26.3214 4.24 26.6734 3.96C27.0254 3.672 27.3654 3.52 27.6934 3.504C27.7734 3.528 27.8614 3.576 27.9574 3.648C28.0614 3.72 28.1574 3.804 28.2454 3.9C28.3414 3.996 28.4214 4.096 28.4854 4.2C28.5494 4.296 28.5854 4.38 28.5934 4.452C28.2734 4.5 27.9414 4.656 27.5974 4.92C27.2614 5.184 26.9534 5.504 26.6734 5.88C26.4014 6.248 26.1774 6.644 26.0014 7.068C25.8254 7.492 25.7374 7.888 25.7374 8.256C25.7374 8.408 25.7934 8.504 25.9054 8.544C26.1374 8.496 26.4054 8.3 26.7094 7.956C27.0134 7.604 27.3814 7.064 27.8134 6.336C27.8934 6.192 27.9814 6.032 28.0774 5.856C28.1814 5.68 28.2854 5.496 28.3894 5.304C28.4934 5.112 28.5934 4.92 28.6894 4.728C28.7934 4.528 28.8894 4.336 28.9774 4.152ZM35.2142 4.224C35.2062 4.376 35.1782 4.536 35.1302 4.704C35.0902 4.864 35.0382 5.012 34.9742 5.148C34.9102 5.276 34.8422 5.384 34.7702 5.472C34.6982 5.56 34.6302 5.604 34.5662 5.604C34.4782 5.596 34.4262 5.536 34.4102 5.424C34.4102 5.4 34.4182 5.364 34.4342 5.316C34.4582 5.26 34.4822 5.2 34.5062 5.136C34.5302 5.072 34.5502 5.008 34.5662 4.944C34.5902 4.88 34.6022 4.824 34.6022 4.776C34.6022 4.664 34.5742 4.572 34.5182 4.5C34.4702 4.42 34.4022 4.38 34.3142 4.38C33.9942 4.38 33.7502 4.58 33.5822 4.98C33.4142 5.38 33.3302 5.968 33.3302 6.744C33.3302 6.824 33.3342 6.872 33.3422 6.888C33.5102 6.88 33.6582 6.876 33.7862 6.876C33.9222 6.868 34.0542 6.864 34.1822 6.864C34.1902 6.88 34.1942 6.912 34.1942 6.96C34.1942 7.032 34.1782 7.084 34.1462 7.116C33.9622 7.156 33.8142 7.192 33.7022 7.224C33.5982 7.248 33.5182 7.272 33.4622 7.296C33.4062 7.32 33.3702 7.348 33.3542 7.38C33.3462 7.404 33.3422 7.44 33.3422 7.488C33.3422 7.552 33.3422 7.616 33.3422 7.68C33.3502 7.744 33.3542 7.824 33.3542 7.92C33.3542 8.592 33.1702 9.132 32.8022 9.54C32.4422 9.948 31.9382 10.184 31.2902 10.248C31.1782 10.24 31.0622 10.208 30.9422 10.152C30.8222 10.096 30.7062 10.024 30.5942 9.936C30.4902 9.848 30.3982 9.748 30.3182 9.636C30.2382 9.532 30.1822 9.424 30.1502 9.312C30.1502 9.008 30.2142 8.72 30.3422 8.448C30.4702 8.168 30.6422 7.924 30.8582 7.716C31.0822 7.5 31.3422 7.328 31.6382 7.2C31.9422 7.064 32.2702 6.984 32.6222 6.96C32.6222 6.76 32.6022 6.564 32.5622 6.372C32.5222 6.18 32.4782 5.996 32.4302 5.82C32.3902 5.636 32.3502 5.46 32.3102 5.292C32.2702 5.116 32.2502 4.944 32.2502 4.776C32.2502 4.56 32.2942 4.348 32.3822 4.14C32.4702 3.924 32.5862 3.728 32.7302 3.552C32.8742 3.368 33.0422 3.212 33.2342 3.084C33.4262 2.956 33.6262 2.868 33.8342 2.82C33.9222 2.844 34.0382 2.916 34.1822 3.036C34.3342 3.148 34.4822 3.276 34.6262 3.42C34.7702 3.564 34.8982 3.712 35.0102 3.864C35.1222 4.008 35.1902 4.128 35.2142 4.224ZM31.2542 9.696C31.4462 9.616 31.6262 9.5 31.7942 9.348C31.9702 9.196 32.1222 9.024 32.2502 8.832C32.3782 8.64 32.4782 8.436 32.5502 8.22C32.6302 8.004 32.6702 7.792 32.6702 7.584C32.5102 7.608 32.3342 7.684 32.1422 7.812C31.9502 7.932 31.7702 8.08 31.6022 8.256C31.4342 8.424 31.2942 8.6 31.1822 8.784C31.0702 8.968 31.0142 9.128 31.0142 9.264C31.0142 9.44 31.0942 9.584 31.2542 9.696ZM36.5306 4.404C36.4906 4.356 36.4546 4.256 36.4226 4.104C36.3906 3.944 36.3746 3.808 36.3746 3.696C36.5826 3.712 36.7826 3.728 36.9746 3.744C37.1666 3.752 37.3426 3.76 37.5026 3.768C37.6226 3.528 37.7506 3.292 37.8866 3.06C38.0306 2.82 38.1666 2.604 38.2946 2.412C38.4306 2.212 38.5546 2.044 38.6666 1.908C38.7866 1.772 38.8786 1.684 38.9426 1.644C39.0226 1.644 39.1226 1.66 39.2426 1.692C39.3706 1.716 39.4986 1.752 39.6266 1.8C39.7546 1.84 39.8706 1.884 39.9746 1.932C40.0786 1.98 40.1506 2.028 40.1906 2.076C39.9506 2.38 39.7426 2.664 39.5666 2.928C39.3986 3.184 39.2146 3.48 39.0146 3.816C39.1746 3.816 39.3346 3.812 39.4946 3.804C39.6626 3.796 39.8306 3.784 39.9986 3.768C40.0386 3.808 40.0706 3.86 40.0946 3.924C40.1186 3.98 40.1306 4.04 40.1306 4.104C39.7386 4.248 39.2626 4.328 38.7026 4.344C38.5026 4.728 38.3226 5.112 38.1626 5.496C38.0106 5.872 37.8786 6.236 37.7666 6.588C37.6626 6.94 37.5786 7.272 37.5146 7.584C37.4586 7.896 37.4306 8.176 37.4306 8.424C37.4306 8.776 37.5626 8.972 37.8266 9.012C38.0666 8.98 38.2946 8.92 38.5106 8.832C38.7266 8.744 38.9186 8.632 39.0866 8.496C39.1346 8.568 39.1626 8.628 39.1706 8.676C39.1226 8.748 39.0386 8.832 38.9186 8.928C38.8066 9.024 38.6826 9.116 38.5466 9.204C38.4106 9.3 38.2786 9.38 38.1506 9.444C38.0226 9.508 37.9266 9.544 37.8626 9.552C37.6626 9.544 37.4626 9.5 37.2626 9.42C37.0626 9.34 36.8786 9.24 36.7106 9.12C36.5506 9 36.4186 8.868 36.3146 8.724C36.2106 8.572 36.1586 8.424 36.1586 8.28C36.1586 8.088 36.1826 7.848 36.2306 7.56C36.2866 7.264 36.3626 6.944 36.4586 6.6C36.5546 6.256 36.6666 5.896 36.7946 5.52C36.9226 5.144 37.0626 4.772 37.2146 4.404H36.5306ZM40.6533 8.196C40.6533 8.124 40.6573 8.036 40.6653 7.932C40.6813 7.82 40.7053 7.676 40.7373 7.5C40.7693 7.316 40.8093 7.096 40.8573 6.84C40.9133 6.584 40.9813 6.276 41.0613 5.916C41.0773 5.836 41.1133 5.708 41.1693 5.532C41.2253 5.356 41.2973 5.172 41.3853 4.98C41.4813 4.78 41.5933 4.588 41.7213 4.404C41.8573 4.22 42.0173 4.084 42.2013 3.996C42.3373 4.028 42.5173 4.112 42.7413 4.248C42.9653 4.376 43.1573 4.556 43.3173 4.788C43.1333 4.996 42.9773 5.204 42.8493 5.412C42.7293 5.62 42.6173 5.836 42.5133 6.06C42.4173 6.284 42.3253 6.516 42.2373 6.756C42.1573 6.996 42.0653 7.248 41.9613 7.512C41.8733 7.736 41.7933 7.968 41.7213 8.208C41.6493 8.44 41.6093 8.644 41.6013 8.82C41.6013 8.964 41.5973 9.064 41.5893 9.12C41.5893 9.184 41.5693 9.216 41.5293 9.216C41.4973 9.216 41.4333 9.196 41.3373 9.156C41.2413 9.116 41.1413 9.056 41.0373 8.976C40.9413 8.888 40.8533 8.78 40.7733 8.652C40.6933 8.524 40.6533 8.372 40.6533 8.196ZM42.9453 2.988C42.9453 2.94 42.9573 2.868 42.9813 2.772C42.9413 2.732 42.9053 2.672 42.8733 2.592C42.8493 2.512 42.8373 2.44 42.8373 2.376C42.8373 2.304 42.8453 2.208 42.8613 2.088C42.8853 1.96 42.9133 1.824 42.9453 1.68C42.9773 1.536 43.0173 1.388 43.0653 1.236C43.1133 1.076 43.1613 0.931999 43.2093 0.804C43.3053 0.804 43.4213 0.832 43.5573 0.887999C43.7013 0.936 43.8453 1.004 43.9893 1.092C44.1333 1.172 44.2653 1.264 44.3853 1.368C44.5053 1.464 44.5973 1.556 44.6613 1.644C44.5733 1.732 44.4573 1.856 44.3133 2.016C44.1693 2.168 44.0293 2.332 43.8933 2.508C43.7573 2.676 43.6333 2.836 43.5213 2.988C43.4093 3.14 43.3373 3.248 43.3053 3.312C43.2093 3.296 43.1253 3.256 43.0533 3.192C42.9813 3.12 42.9453 3.052 42.9453 2.988ZM44.1493 6.888C44.1493 6.432 44.2413 5.992 44.4253 5.568C44.6173 5.136 44.8653 4.756 45.1693 4.428C45.4813 4.092 45.8333 3.824 46.2253 3.624C46.6253 3.416 47.0373 3.312 47.4613 3.312C47.8773 3.312 48.1973 3.416 48.4213 3.624C48.6453 3.832 48.7573 4.128 48.7573 4.512C48.7573 4.696 48.7293 4.876 48.6733 5.052C48.6253 5.22 48.5573 5.372 48.4693 5.508C48.3893 5.644 48.2933 5.756 48.1813 5.844C48.0693 5.924 47.9573 5.964 47.8453 5.964C47.7493 5.964 47.6493 5.936 47.5453 5.88C47.4493 5.816 47.3693 5.736 47.3053 5.64C47.8413 5.152 48.1093 4.708 48.1093 4.308C48.1093 4.076 48.0173 3.96 47.8333 3.96C47.6733 3.96 47.4733 4.036 47.2333 4.188C46.9933 4.34 46.7613 4.54 46.5373 4.788C46.1933 5.172 45.9293 5.6 45.7453 6.072C45.5693 6.536 45.4813 7.024 45.4813 7.536C45.4813 8.184 45.6253 8.572 45.9133 8.7C46.0333 8.684 46.1733 8.648 46.3333 8.592C46.4933 8.536 46.6653 8.464 46.8493 8.376C47.0333 8.28 47.2213 8.172 47.4133 8.052C47.6133 7.932 47.8053 7.804 47.9893 7.668C48.0213 7.692 48.0493 7.728 48.0733 7.776C48.0973 7.824 48.1093 7.868 48.1093 7.908C47.9733 8.076 47.8173 8.24 47.6413 8.4C47.4653 8.56 47.2813 8.708 47.0893 8.844C46.8973 8.972 46.7093 9.08 46.5253 9.168C46.3493 9.264 46.1933 9.324 46.0573 9.348C45.7933 9.324 45.5453 9.24 45.3133 9.096C45.0813 8.96 44.8773 8.78 44.7013 8.556C44.5333 8.332 44.3973 8.076 44.2933 7.788C44.1973 7.5 44.1493 7.2 44.1493 6.888Z" fill="black"/>
      </svg>